<svg xmlns="http://www.w3.org/2000/svg" viewBox="0 0 583.79 404.37"><defs><style>.cls-1{font-size:12px;fill:#f490a4;font-family:Roboto-Regular, Roboto;}</style></defs><title>Wants_1</title><g id="Calque_2" data-name="Calque 2"><g id="Calque_2-2" data-name="Calque 2"><text class="cls-1" transform="translate(8.3 393.99) rotate(-53.83)">E</text><text class="cls-1" transform="translate(12.31 388.49) rotate(-53.83)">V</text><text class="cls-1" transform="matrix(0.59, -0.81, 0.81, 0.59, 16.83, 382.32)">E</text><text class="cls-1" transform="matrix(0.59, -0.81, 0.81, 0.59, 20.86, 376.8)">R</text><text class="cls-1" transform="translate(25.05 371.07) rotate(-53.83)">Y<tspan x="7.22" y="0">B</tspan></text><text class="cls-1" transform="matrix(0.59, -0.81, 0.81, 0.59, 33.72, 359.21)">O</text><text class="cls-1" transform="translate(38.59 352.55) rotate(-53.83)">D</text><text class="cls-1" transform="translate(43.08 346.41) rotate(-53.83)">Y</text><text class="cls-1" transform="translate(47.34 340.58) rotate(-53.83)"> </text><text class="cls-1" transform="matrix(0.59, -0.81, 0.81, 0.59, 49.09, 338.19)">W</text><text class="cls-1" transform="matrix(0.59, -0.81, 0.81, 0.59, 55.23, 329.79)">A</text><text class="cls-1" transform="matrix(0.59, -0.81, 0.81, 0.59, 59.85, 323.47)">N<tspan x="8.4" y="0">T</tspan></text><text class="cls-1" transform="translate(68.97 310.99) rotate(-53.83)">S</text><text class="cls-1" transform="matrix(0.59, -0.81, 0.81, 0.59, 73.17, 305.25)"> </text><text class="cls-1" transform="translate(74.79 303.03) rotate(-53.83)">T</text><text class="cls-1" transform="translate(78.92 297.38) rotate(-53.83)">O</text><text class="cls-1" transform="matrix(0.59, -0.81, 0.81, 0.59, 83.8, 290.71)"> </text><text class="cls-1" transform="translate(85.54 288.32) rotate(-53.83)">B</text><text class="cls-1" transform="matrix(0.59, -0.81, 0.81, 0.59, 89.95, 282.3)">E</text><text class="cls-1" transform="translate(93.98 276.78) rotate(-53.83)"> </text><text class="cls-1" transform="matrix(0.59, -0.81, 0.81, 0.59, 95.74, 274.37)">P</text><text class="cls-1" transform="translate(100.2 268.28) rotate(-53.83)">O</text><text class="cls-1" transform="translate(105.08 261.6) rotate(-53.83)">P</text><text class="cls-1" transform="translate(109.55 255.49) rotate(-53.83)">P</text><text class="cls-1" transform="translate(114 249.39) rotate(-53.83)">Y</text><text class="cls-1" transform="matrix(0.59, -0.81, 0.81, 0.59, 118.27, 243.55)"> </text><text class="cls-1" transform="matrix(0.59, -0.81, 0.81, 0.59, 120.02, 241.15)">P</text><text class="cls-1" transform="translate(124.48 235.05) rotate(-53.83)">O</text><text class="cls-1" transform="matrix(0.59, -0.81, 0.81, 0.59, 129.37, 228.37)">P</text><text class="cls-1" transform="matrix(0.59, -0.81, 0.81, 0.59, 133.84, 222.26)">P</text><text class="cls-1" transform="translate(138.3 216.16) rotate(-53.83)">Y<tspan x="7.22" y="0"> </tspan></text><text class="cls-1" transform="matrix(0.59, -0.81, 0.81, 0.59, 144.3, 207.94)">E</text><text class="cls-1" transform="matrix(0.59, -0.81, 0.81, 0.59, 148.33, 202.44)">V</text><text class="cls-1" transform="matrix(0.59, -0.81, 0.81, 0.59, 152.84, 196.26)">E</text><text class="cls-1" transform="translate(156.87 190.76) rotate(-53.83)">R</text><text class="cls-1" transform="matrix(0.59, -0.81, 0.81, 0.59, 161.07, 185.01)">Y</text><text class="cls-1" transform="matrix(0.59, -0.81, 0.81, 0.59, 165.32, 179.19)">B</text><text class="cls-1" transform="translate(169.73 173.16) rotate(-53.83)">O</text><text class="cls-1" transform="translate(174.6 166.5) rotate(-53.83)">D</text><text class="cls-1" transform="matrix(0.59, -0.81, 0.81, 0.59, 179.1, 160.34)">Y</text><text class="cls-1" transform="matrix(0.59, -0.81, 0.81, 0.59, 183.34, 154.54)"> </text><text class="cls-1" transform="translate(185.1 152.13) rotate(-53.83)">W</text><text class="cls-1" transform="translate(191.24 143.74) rotate(-53.83)">A</text><text class="cls-1" transform="matrix(0.59, -0.81, 0.81, 0.59, 195.86, 137.42)">N</text><text class="cls-1" transform="matrix(0.59, -0.81, 0.81, 0.59, 200.82, 130.63)">T</text><text class="cls-1" transform="matrix(0.59, -0.81, 0.81, 0.59, 204.99, 124.92)">S</text><text class="cls-1" transform="matrix(0.59, -0.81, 0.81, 0.59, 209.18, 119.19)"> </text><text class="cls-1" transform="translate(210.8 116.98) rotate(-53.83)">T</text><text class="cls-1" transform="matrix(0.59, -0.81, 0.81, 0.59, 214.94, 111.32)">O</text><text class="cls-1" transform="matrix(0.59, -0.81, 0.81, 0.59, 219.8, 104.66)"> </text><text class="cls-1" transform="translate(221.56 102.27) rotate(-53.83)">B</text><text class="cls-1" transform="translate(225.98 96.22) rotate(-53.83)">E</text><text class="cls-1" transform="matrix(0.59, -0.81, 0.81, 0.59, 229.99, 90.73)"> </text><text class="cls-1" transform="translate(231.75 88.32) rotate(-53.83)">P</text><text class="cls-1" transform="matrix(0.59, -0.81, 0.81, 0.59, 236.22, 82.21)">O</text><text class="cls-1" transform="matrix(0.59, -0.81, 0.81, 0.59, 241.1, 75.53)">P</text><text class="cls-1" transform="translate(245.56 69.43) rotate(-53.83)">P</text><text class="cls-1" transform="translate(250.02 63.32) rotate(-53.83)">Y</text><text class="cls-1" transform="translate(254.28 57.5) rotate(-53.83)"> </text><text class="cls-1" transform="translate(256.03 55.1) rotate(-53.83)">P</text><text class="cls-1" transform="translate(260.51 48.98) rotate(-53.83)">O</text><text class="cls-1" transform="matrix(0.59, -0.81, 0.81, 0.59, 265.37, 42.33)">P<tspan x="7.58" y="0">P</tspan></text><text class="cls-1" transform="matrix(0.59, -0.81, 0.81, 0.59, 274.31, 30.1)">Y</text><text class="cls-1" transform="translate(278.56 24.29) rotate(-53.83)"> </text><text class="cls-1" transform="matrix(0.59, -0.81, 0.81, 0.59, 280.33, 21.87)">E</text><text class="cls-1" transform="matrix(0.59, -0.81, 0.81, 0.59, 284.35, 16.37)">V</text><text class="cls-1" transform="translate(288.85 10.21) rotate(-53.83)">E</text><text class="cls-1" transform="matrix(0.59, 0.81, -0.81, 0.59, 292.44, 6.32)">R</text><text class="cls-1" transform="matrix(0.59, 0.81, -0.81, 0.59, 296.64, 12.07)">Y</text><text class="cls-1" transform="matrix(0.59, 0.81, -0.81, 0.59, 300.89, 17.88)">B</text><text class="cls-1" transform="matrix(0.59, 0.81, -0.81, 0.59, 305.3, 23.91)">O</text><text class="cls-1" transform="translate(310.17 30.58) rotate(53.84)">D</text><text class="cls-1" transform="matrix(0.59, 0.81, -0.81, 0.59, 314.66, 36.72)">Y</text><text class="cls-1" transform="translate(318.92 42.55) rotate(53.84)"> </text><text class="cls-1" transform="matrix(0.59, 0.81, -0.81, 0.59, 320.67, 44.95)">W</text><text class="cls-1" transform="translate(326.81 53.34) rotate(53.84)">A</text><text class="cls-1" transform="matrix(0.59, 0.81, -0.81, 0.59, 331.44, 59.68)">N</text><text class="cls-1" transform="matrix(0.59, 0.81, -0.81, 0.59, 336.38, 66.44)">T</text><text class="cls-1" transform="translate(340.56 72.16) rotate(53.84)">S</text><text class="cls-1" transform="translate(344.76 77.9) rotate(53.84)"> </text><text class="cls-1" transform="matrix(0.59, 0.81, -0.81, 0.59, 346.37, 80.1)">T</text><text class="cls-1" transform="matrix(0.59, 0.81, -0.81, 0.59, 350.5, 85.75)">O</text><text class="cls-1" transform="translate(355.37 92.42) rotate(53.84)"> </text><text class="cls-1" transform="translate(357.12 94.82) rotate(53.84)">B</text><text class="cls-1" transform="translate(361.53 100.85) rotate(53.84)">E</text><text class="cls-1" transform="matrix(0.59, 0.81, -0.81, 0.59, 365.57, 106.38)"> </text><text class="cls-1" transform="translate(367.32 108.76) rotate(53.84)">P</text><text class="cls-1" transform="translate(371.79 114.89) rotate(53.84)">O</text><text class="cls-1" transform="translate(376.65 121.53) rotate(53.84)">P</text><text class="cls-1" transform="translate(381.12 127.65) rotate(53.84)">P</text><text class="cls-1" transform="translate(385.59 133.77) rotate(53.84)">Y</text><text class="cls-1" transform="translate(389.86 139.6) rotate(53.84)"> </text><text class="cls-1" transform="translate(391.61 142) rotate(53.84)">P</text><text class="cls-1" transform="matrix(0.59, 0.81, -0.81, 0.59, 396.07, 148.1)">O</text><text class="cls-1" transform="matrix(0.59, 0.81, -0.81, 0.59, 400.93, 154.76)">P</text><text class="cls-1" transform="translate(405.41 160.88) rotate(53.84)">P</text><text class="cls-1" transform="translate(409.88 167) rotate(53.84)">Y</text><text class="cls-1" transform="matrix(0.59, 0.81, -0.81, 0.59, 414.13, 172.81)"> </text><text class="cls-1" transform="matrix(0.59, 0.81, -0.81, 0.59, 415.88, 175.21)">E</text><text class="cls-1" transform="translate(419.91 180.72) rotate(53.84)">V</text><text class="cls-1" transform="translate(424.43 186.9) rotate(53.84)">E</text><text class="cls-1" transform="matrix(0.59, 0.81, -0.81, 0.59, 428.44, 192.39)">R<tspan x="7.11" y="0">Y</tspan></text><text class="cls-1" transform="translate(436.9 203.96) rotate(53.84)">B</text><text class="cls-1" transform="translate(441.3 209.99) rotate(53.84)">O</text><text class="cls-1" transform="matrix(0.59, 0.81, -0.81, 0.59, 446.18, 216.66)">D</text><text class="cls-1" transform="translate(450.67 222.81) rotate(53.84)">Y</text><text class="cls-1" transform="translate(454.92 228.62) rotate(53.84)"> </text><text class="cls-1" transform="matrix(0.59, 0.81, -0.81, 0.59, 456.68, 231.04)">W</text><text class="cls-1" transform="matrix(0.59, 0.81, -0.81, 0.59, 462.82, 239.43)">A</text><text class="cls-1" transform="matrix(0.59, 0.81, -0.81, 0.59, 467.44, 245.76)">N</text><text class="cls-1" transform="translate(472.38 252.51) rotate(53.84)">T<tspan x="7.07" y="0">S</tspan></text><text class="cls-1" transform="matrix(0.59, 0.81, -0.81, 0.59, 480.76, 263.98)"> </text><text class="cls-1" transform="translate(482.38 266.19) rotate(53.84)">T</text><text class="cls-1" transform="matrix(0.59, 0.81, -0.81, 0.59, 486.5, 271.84)">O</text><text class="cls-1" transform="translate(491.38 278.51) rotate(53.84)"> </text><text class="cls-1" transform="matrix(0.59, 0.81, -0.81, 0.59, 493.13, 280.9)">B</text><text class="cls-1" transform="translate(497.53 286.92) rotate(53.84)">E</text><text class="cls-1" transform="translate(501.56 292.44) rotate(53.84)"> </text><text class="cls-1" transform="matrix(0.59, 0.81, -0.81, 0.59, 503.32, 294.84)">P</text><text class="cls-1" transform="translate(507.78 300.95) rotate(53.84)">O</text><text class="cls-1" transform="translate(512.65 307.61) rotate(53.84)">P</text><text class="cls-1" transform="translate(517.12 313.73) rotate(53.84)">P</text><text class="cls-1" transform="translate(521.59 319.84) rotate(53.84)">Y</text><text class="cls-1" transform="matrix(0.59, 0.81, -0.81, 0.59, 525.84, 325.66)"> </text><text class="cls-1" transform="translate(527.61 328.07) rotate(53.84)">P</text><text class="cls-1" transform="matrix(0.59, 0.81, -0.81, 0.59, 532.08, 334.19)">O</text><text class="cls-1" transform="translate(536.94 340.84) rotate(53.84)">P</text><text class="cls-1" transform="translate(541.41 346.96) rotate(53.84)">P</text><text class="cls-1" transform="translate(545.87 353.06) rotate(53.84)">Y</text><text class="cls-1" transform="translate(550.12 358.88) rotate(53.84)"> </text><text class="cls-1" transform="matrix(0.59, 0.81, -0.81, 0.59, 551.89, 361.29)">E</text><text class="cls-1" transform="matrix(0.59, 0.81, -0.81, 0.59, 555.91, 366.79)">V</text><text class="cls-1" transform="matrix(0.59, 0.81, -0.81, 0.59, 560.41, 372.96)">E</text><text class="cls-1" transform="matrix(0.59, 0.81, -0.81, 0.59, 564.45, 378.49)">R</text><text class="cls-1" transform="translate(568.64 384.21) rotate(53.84)">Y</text><text class="cls-1" transform="translate(572.89 390.03) rotate(53.84)">B</text><text class="cls-1" transform="translate(574.21 394.11) rotate(-179.91)">O</text><text class="cls-1" transform="translate(565.94 394.09) rotate(-179.91)">D</text><text class="cls-1" transform="translate(558.33 394.08) rotate(-179.91)">Y</text><text class="cls-1" transform="translate(551.12 394.07) rotate(-179.91)"> </text><text class="cls-1" transform="translate(548.15 394.07) rotate(-179.91)">W</text><text class="cls-1" transform="translate(537.76 394.05) rotate(-179.91)">A</text><text class="cls-1" transform="translate(529.92 394.04) rotate(-179.91)">N</text><text class="cls-1" transform="translate(521.55 394.02) rotate(-179.91)">T</text><text class="cls-1" transform="translate(514.45 394.01) rotate(-179.91)">S</text><text class="cls-1" transform="translate(507.35 394) rotate(-179.91)"> </text><text class="cls-1" transform="translate(504.6 394) rotate(-179.91)">T</text><text class="cls-1" transform="matrix(-1, 0, 0, -1, 497.59, 393.99)">O</text><text class="cls-1" transform="translate(489.36 393.97) rotate(-179.91)"> </text><text class="cls-1" transform="translate(486.37 393.97) rotate(-179.91)">B</text><text class="cls-1" transform="translate(478.9 393.96) rotate(-179.91)">E</text><text class="cls-1" transform="translate(472.07 393.94) rotate(-179.91)"> </text><text class="cls-1" transform="translate(469.11 393.94) rotate(-179.91)">P</text><text class="cls-1" transform="matrix(-1, 0, 0, -1, 461.54, 393.93)">O</text><text class="cls-1" transform="translate(453.28 393.91) rotate(-179.91)">P</text><text class="cls-1" transform="matrix(-1, 0, 0, -1, 445.7, 393.9)">P</text><text class="cls-1" transform="translate(438.13 393.89) rotate(-179.91)">Y</text><text class="cls-1" transform="translate(430.94 393.88) rotate(-179.91)"> </text><text class="cls-1" transform="matrix(-1, 0, 0, -1, 427.95, 393.87)">P</text><text class="cls-1" transform="translate(420.38 393.86) rotate(-179.91)">O</text><text class="cls-1" transform="translate(412.12 393.85) rotate(-179.91)">P</text><text class="cls-1" transform="translate(404.54 393.83) rotate(-179.91)">P</text><text class="cls-1" transform="translate(396.97 393.82) rotate(-179.91)">Y</text><text class="cls-1" transform="translate(389.77 393.81) rotate(-179.91)"> </text><text class="cls-1" transform="translate(386.8 393.81) rotate(-179.91)">E</text><text class="cls-1" transform="matrix(-1, 0, 0, -1, 379.97, 393.79)">V<tspan x="7.62" y="0">E</tspan></text><text class="cls-1" transform="translate(365.53 393.77) rotate(-179.91)">R</text><text class="cls-1" transform="matrix(-1, 0, 0, -1, 358.4, 393.76)">Y</text><text class="cls-1" transform="matrix(-1, 0, 0, -1, 351.19, 393.75)">B</text><text class="cls-1" transform="matrix(-1, 0, 0, -1, 343.71, 393.74)">O</text><text class="cls-1" transform="matrix(-1, 0, 0, -1, 335.46, 393.72)">D</text><text class="cls-1" transform="matrix(-1, 0, 0, -1, 327.84, 393.71)">Y</text><text class="cls-1" transform="translate(320.65 393.7) rotate(-179.91)"> </text><text class="cls-1" transform="translate(317.67 393.69) rotate(-179.91)">W</text><text class="cls-1" transform="translate(307.28 393.68) rotate(-179.91)">A</text><text class="cls-1" transform="translate(299.43 393.67) rotate(-179.91)">N</text><text class="cls-1" transform="translate(291.04 393.65) rotate(-179.91)">T</text><text class="cls-1" transform="matrix(-1, 0, 0, -1, 283.98, 393.64)">S</text><text class="cls-1" transform="matrix(-1, 0, 0, -1, 276.86, 393.63)"> </text><text class="cls-1" transform="translate(274.14 393.63) rotate(-179.91)">T</text><text class="cls-1" transform="matrix(-1, 0, 0, -1, 267.11, 393.61)">O</text><text class="cls-1" transform="translate(258.88 393.6) rotate(-179.91)"> </text><text class="cls-1" transform="translate(255.92 393.59) rotate(-179.91)">B</text><text class="cls-1" transform="matrix(-1, 0, 0, -1, 248.43, 393.58)">E</text><text class="cls-1" transform="translate(241.61 393.57) rotate(-179.91)"> </text><text class="cls-1" transform="translate(238.65 393.57) rotate(-179.91)">P</text><text class="cls-1" transform="translate(231.07 393.56) rotate(-179.91)">O</text><text class="cls-1" transform="matrix(-1, 0, 0, -1, 222.82, 393.54)">P</text><text class="cls-1" transform="translate(215.25 393.53) rotate(-179.91)">P</text><text class="cls-1" transform="translate(207.67 393.52) rotate(-179.91)">Y</text><text class="cls-1" transform="translate(200.46 393.5) rotate(-179.91)"> </text><text class="cls-1" transform="translate(197.47 393.5) rotate(-179.91)">P</text><text class="cls-1" transform="matrix(-1, 0, 0, -1, 189.91, 393.49)">O</text><text class="cls-1" transform="translate(181.65 393.48) rotate(-179.91)">P</text><text class="cls-1" transform="translate(174.1 393.46) rotate(-179.91)">P</text><text class="cls-1" transform="translate(166.5 393.45) rotate(-179.91)">Y</text><text class="cls-1" transform="translate(159.3 393.44) rotate(-179.91)"> </text><text class="cls-1" transform="translate(156.32 393.43) rotate(-179.91)">E</text><text class="cls-1" transform="translate(149.51 393.42) rotate(-179.91)">V</text><text class="cls-1" transform="matrix(-1, 0, 0, -1, 141.86, 393.41)">E</text><text class="cls-1" transform="translate(135.04 393.4) rotate(-179.91)">R</text><text class="cls-1" transform="translate(127.94 393.39) rotate(-179.91)">Y</text><text class="cls-1" transform="translate(120.72 393.38) rotate(-179.91)">B</text><text class="cls-1" transform="translate(113.26 393.36) rotate(-179.91)">O</text><text class="cls-1" transform="translate(105 393.35) rotate(-179.91)">D</text><text class="cls-1" transform="translate(97.38 393.34) rotate(-179.91)">Y</text><text class="cls-1" transform="translate(90.18 393.33) rotate(-179.91)"> </text><text class="cls-1" transform="translate(87.19 393.32) rotate(-179.91)">W</text><text class="cls-1" transform="translate(76.78 393.31) rotate(-179.91)">A</text><text class="cls-1" transform="translate(73.56 391.32) rotate(-54.32)">N</text><text class="cls-1" transform="translate(78.45 384.52) rotate(-54.32)">T</text><text class="cls-1" transform="translate(82.57 378.78) rotate(-54.32)">S</text><text class="cls-1" transform="matrix(0.58, -0.81, 0.81, 0.58, 86.73, 372.99)"> </text><text class="cls-1" transform="matrix(0.58, -0.81, 0.81, 0.58, 88.32, 370.77)">T</text><text class="cls-1" transform="matrix(0.58, -0.81, 0.81, 0.58, 92.41, 365.08)">O</text><text class="cls-1" transform="translate(97.22 358.37) rotate(-54.32)"> </text><text class="cls-1" transform="translate(98.96 355.95) rotate(-54.32)">B</text><text class="cls-1" transform="matrix(0.58, -0.81, 0.81, 0.58, 103.31, 349.9)">E</text><text class="cls-1" transform="translate(107.29 344.35) rotate(-54.32)"> </text><text class="cls-1" transform="translate(109.02 341.94) rotate(-54.32)">P</text><text class="cls-1" transform="matrix(0.58, -0.81, 0.81, 0.58, 113.44, 335.78)">O</text><text class="cls-1" transform="matrix(0.58, -0.81, 0.81, 0.58, 118.26, 329.07)">P</text><text class="cls-1" transform="matrix(0.58, -0.81, 0.81, 0.58, 122.68, 322.92)">P</text><text class="cls-1" transform="matrix(0.58, -0.81, 0.81, 0.58, 127.09, 316.78)">Y</text><text class="cls-1" transform="translate(131.3 310.92) rotate(-54.32)"> </text><text class="cls-1" transform="matrix(0.58, -0.81, 0.81, 0.58, 133.03, 308.5)">P</text><text class="cls-1" transform="matrix(0.58, -0.81, 0.81, 0.58, 137.44, 302.36)">O</text><text class="cls-1" transform="matrix(0.58, -0.81, 0.81, 0.58, 142.28, 295.63)">P</text><text class="cls-1" transform="translate(146.69 289.48) rotate(-54.32)">P</text><text class="cls-1" transform="matrix(0.58, -0.81, 0.81, 0.58, 151.1, 283.34)">Y</text><text class="cls-1" transform="matrix(0.58, -0.81, 0.81, 0.58, 155.31, 277.47)"> </text><text class="cls-1" transform="translate(157.05 275.06) rotate(-54.32)">E</text><text class="cls-1" transform="matrix(0.58, -0.81, 0.81, 0.58, 161.03, 269.51)">V</text><text class="cls-1" transform="matrix(0.58, -0.81, 0.81, 0.58, 165.47, 263.32)">E</text><text class="cls-1" transform="matrix(0.58, -0.81, 0.81, 0.58, 169.45, 257.78)">R</text><text class="cls-1" transform="matrix(0.58, -0.81, 0.81, 0.58, 173.6, 252)">Y</text><text class="cls-1" transform="translate(177.81 246.13) rotate(-54.32)">B</text><text class="cls-1" transform="translate(182.16 240.08) rotate(-54.32)">O</text><text class="cls-1" transform="translate(186.98 233.37) rotate(-54.32)">D</text><text class="cls-1" transform="matrix(0.58, -0.81, 0.81, 0.58, 191.43, 227.17)">Y</text><text class="cls-1" transform="matrix(0.58, -0.81, 0.81, 0.58, 195.63, 221.32)"> </text><text class="cls-1" transform="matrix(0.58, -0.81, 0.81, 0.58, 197.36, 218.91)">W</text><text class="cls-1" transform="matrix(0.58, -0.81, 0.81, 0.58, 203.43, 210.45)">A</text><text class="cls-1" transform="translate(207.99 204.1) rotate(-54.32)">N</text><text class="cls-1" transform="translate(212.89 197.28) rotate(-54.32)">T</text><text class="cls-1" transform="translate(217.01 191.54) rotate(-54.32)">S</text><text class="cls-1" transform="matrix(0.58, -0.81, 0.81, 0.58, 221.17, 185.75)"> </text><text class="cls-1" transform="matrix(0.58, -0.81, 0.81, 0.58, 222.77, 183.52)">T</text><text class="cls-1" transform="translate(226.84 177.86) rotate(-54.32)">O</text><text class="cls-1" transform="translate(231.65 171.16) rotate(-54.32)"> </text><text class="cls-1" transform="matrix(0.58, -0.81, 0.81, 0.58, 233.4, 168.72)">B</text><text class="cls-1" transform="matrix(0.58, -0.81, 0.81, 0.58, 237.76, 162.65)">E</text><text class="cls-1" transform="matrix(0.58, -0.81, 0.81, 0.58, 241.74, 157.11)"> </text><text class="cls-1" transform="translate(243.47 154.7) rotate(-54.32)">P</text><text class="cls-1" transform="translate(247.88 148.56) rotate(-54.32)">O</text><text class="cls-1" transform="matrix(0.58, -0.81, 0.81, 0.58, 252.7, 141.84)">P</text><text class="cls-1" transform="translate(257.11 135.69) rotate(-54.32)">P</text><text class="cls-1" transform="translate(261.53 129.54) rotate(-54.32)">Y</text><text class="cls-1" transform="translate(265.73 123.69) rotate(-54.32)"> </text><text class="cls-1" transform="matrix(0.58, -0.81, 0.81, 0.58, 267.47, 121.27)">P</text><text class="cls-1" transform="matrix(0.58, -0.81, 0.81, 0.58, 271.89, 115.11)">O</text><text class="cls-1" transform="matrix(0.58, -0.81, 0.81, 0.58, 276.7, 108.41)">P</text><text class="cls-1" transform="translate(281.12 102.26) rotate(-54.32)">P</text><text class="cls-1" transform="translate(285.54 96.1) rotate(-54.32)">Y</text><text class="cls-1" transform="translate(289.74 90.25) rotate(-54.32)"> </text><text class="cls-1" transform="matrix(0.6, 0.8, -0.8, 0.6, 291.01, 85.26)">E</text><text class="cls-1" transform="translate(295.09 90.74) rotate(53.35)">V</text><text class="cls-1" transform="translate(299.64 96.86) rotate(53.35)">E</text><text class="cls-1" transform="translate(303.71 102.32) rotate(53.35)">R</text><text class="cls-1" transform="matrix(0.6, 0.8, -0.8, 0.6, 307.95, 108.03)">Y</text><text class="cls-1" transform="translate(312.25 113.81) rotate(53.35)">B<tspan x="7.49" y="0">O</tspan></text><text class="cls-1" transform="translate(321.65 126.43) rotate(53.35)">D</text><text class="cls-1" transform="translate(326.2 132.55) rotate(53.35)">Y</text><text class="cls-1" transform="matrix(0.6, 0.8, -0.8, 0.6, 330.5, 138.33)"> </text><text class="cls-1" transform="matrix(0.6, 0.8, -0.8, 0.6, 332.27, 140.71)">W</text><text class="cls-1" transform="matrix(0.6, 0.8, -0.8, 0.6, 338.48, 149.06)">A</text><text class="cls-1" transform="translate(343.15 155.34) rotate(53.35)">N</text><text class="cls-1" transform="translate(348.16 162.07) rotate(53.35)">T</text><text class="cls-1" transform="matrix(0.6, 0.8, -0.8, 0.6, 352.37, 167.74)">S</text><text class="cls-1" transform="matrix(0.6, 0.8, -0.8, 0.6, 356.64, 173.47)"> </text><text class="cls-1" transform="translate(358.26 175.65) rotate(53.35)">T</text><text class="cls-1" transform="translate(362.44 181.26) rotate(53.35)">O</text><text class="cls-1" transform="translate(367.37 187.9) rotate(53.35)"> </text><text class="cls-1" transform="matrix(0.6, 0.8, -0.8, 0.6, 369.15, 190.29)">B</text><text class="cls-1" transform="matrix(0.6, 0.8, -0.8, 0.6, 373.6, 196.27)">E</text><text class="cls-1" transform="translate(377.68 201.75) rotate(53.35)"> </text><text class="cls-1" transform="translate(379.45 204.13) rotate(53.35)">P</text><text class="cls-1" transform="matrix(0.6, 0.8, -0.8, 0.6, 383.97, 210.21)">O</text><text class="cls-1" transform="matrix(0.6, 0.8, -0.8, 0.6, 388.9, 216.84)">P</text><text class="cls-1" transform="translate(393.43 222.92) rotate(53.35)">P</text><text class="cls-1" transform="translate(397.95 229) rotate(53.35)">Y</text><text class="cls-1" transform="matrix(0.6, 0.8, -0.8, 0.6, 402.24, 234.76)"> </text><text class="cls-1" transform="translate(404.02 237.16) rotate(53.35)">P</text><text class="cls-1" transform="translate(408.53 243.23) rotate(53.35)">O</text><text class="cls-1" transform="matrix(0.6, 0.8, -0.8, 0.6, 413.46, 249.85)">P</text><text class="cls-1" transform="matrix(0.6, 0.8, -0.8, 0.6, 417.98, 255.93)">P</text><text class="cls-1" transform="translate(422.5 262) rotate(53.35)">Y</text><text class="cls-1" transform="translate(426.81 267.8) rotate(53.35)"> <tspan x="2.98" y="0">E</tspan></text><text class="cls-1" transform="translate(432.66 275.66) rotate(53.35)">V</text><text class="cls-1" transform="matrix(0.6, 0.8, -0.8, 0.6, 437.21, 281.77)">E</text><text class="cls-1" transform="translate(441.29 287.26) rotate(53.35)">R</text><text class="cls-1" transform="translate(445.53 292.96) rotate(53.35)">Y</text><text class="cls-1" transform="matrix(0.6, 0.8, -0.8, 0.6, 449.83, 298.74)">B</text><text class="cls-1" transform="translate(454.29 304.73) rotate(53.35)">O</text><text class="cls-1" transform="matrix(0.6, 0.8, -0.8, 0.6, 459.21, 311.35)">D</text><text class="cls-1" transform="translate(463.76 317.47) rotate(53.35)">Y</text><text class="cls-1" transform="matrix(0.6, 0.8, -0.8, 0.6, 468.08, 323.26)"> </text><text class="cls-1" transform="translate(469.84 325.64) rotate(53.35)">W</text><text class="cls-1" transform="translate(476.06 333.99) rotate(53.35)">A</text><text class="cls-1" transform="translate(480.73 340.27) rotate(53.35)">N</text><text class="cls-1" transform="translate(484.18 345.84) rotate(180)">T<tspan x="7.08" y="0">S</tspan><tspan x="14.2" y="0"> </tspan><tspan x="16.93" y="0">T</tspan><tspan x="23.93" y="0">O</tspan><tspan x="32.16" y="0"> </tspan><tspan x="35.16" y="0">B</tspan><tspan x="42.63" y="0">E</tspan><tspan x="49.46" y="0"> </tspan><tspan x="52.43" y="0">P</tspan><tspan x="60" y="0">O</tspan><tspan x="68.25" y="0">P</tspan><tspan x="75.82" y="0">P</tspan><tspan x="83.38" y="0">Y</tspan><tspan x="90.6" y="0"> </tspan><tspan x="93.57" y="0">P</tspan><tspan x="101.15" y="0">O</tspan><tspan x="109.41" y="0">P</tspan><tspan x="116.98" y="0">P</tspan><tspan x="124.56" y="0">Y</tspan><tspan x="131.74" y="0"> </tspan><tspan x="134.74" y="0">E</tspan><tspan x="141.55" y="0">V</tspan><tspan x="149.18" y="0">E</tspan><tspan x="156" y="0">R</tspan><tspan x="163.11" y="0">Y</tspan><tspan x="170.33" y="0">B</tspan><tspan x="177.8" y="0">O</tspan><tspan x="186.06" y="0">D</tspan><tspan x="193.68" y="0">Y</tspan><tspan x="200.88" y="0"> </tspan><tspan x="203.86" y="0">W</tspan><tspan x="214.26" y="0">A</tspan><tspan x="222.09" y="0">N</tspan><tspan x="230.47" y="0">T</tspan><tspan x="237.55" y="0">S</tspan><tspan x="244.67" y="0"> </tspan><tspan x="247.41" y="0">T</tspan><tspan x="254.41" y="0">O</tspan><tspan x="262.65" y="0"> </tspan><tspan x="265.63" y="0">B</tspan><tspan x="273.11" y="0">E</tspan><tspan x="279.92" y="0"> </tspan><tspan x="282.91" y="0">P</tspan><tspan x="290.49" y="0">O</tspan><tspan x="298.72" y="0">P</tspan><tspan x="306.3" y="0">P</tspan></text><text class="cls-1" transform="translate(166.01 348.41) rotate(-53.98)">Y</text><text class="cls-1" transform="matrix(0.59, -0.81, 0.81, 0.59, 170.25, 342.58)"> </text><text class="cls-1" transform="translate(171.98 340.19) rotate(-53.98)">P</text><text class="cls-1" transform="translate(176.44 334.06) rotate(-53.98)">O</text><text class="cls-1" transform="matrix(0.59, -0.81, 0.81, 0.59, 181.3, 327.38)">P</text><text class="cls-1" transform="translate(185.74 321.26) rotate(-53.98)">P</text><text class="cls-1" transform="translate(190.2 315.13) rotate(-53.98)">Y</text><text class="cls-1" transform="translate(194.44 309.3) rotate(-53.98)"> </text><text class="cls-1" transform="translate(196.19 306.89) rotate(-53.98)">E</text><text class="cls-1" transform="matrix(0.59, -0.81, 0.81, 0.59, 200.2, 301.38)">V</text><text class="cls-1" transform="translate(204.69 295.2) rotate(-53.98)">E</text><text class="cls-1" transform="translate(208.7 289.68) rotate(-53.98)">R</text><text class="cls-1" transform="translate(212.89 283.93) rotate(-53.98)">Y</text><text class="cls-1" transform="translate(217.13 278.09) rotate(-53.98)">B</text><text class="cls-1" transform="translate(221.51 272.06) rotate(-53.98)">O</text><text class="cls-1" transform="translate(226.38 265.37) rotate(-53.98)">D</text><text class="cls-1" transform="matrix(0.59, -0.81, 0.81, 0.59, 230.85, 259.22)">Y</text><text class="cls-1" transform="translate(235.09 253.38) rotate(-53.98)"> </text><text class="cls-1" transform="matrix(0.59, -0.81, 0.81, 0.59, 236.85, 250.97)">W</text><text class="cls-1" transform="translate(242.96 242.56) rotate(-53.98)">A</text><text class="cls-1" transform="translate(247.56 236.22) rotate(-53.98)">N</text><text class="cls-1" transform="translate(252.49 229.45) rotate(-53.98)">T</text><text class="cls-1" transform="matrix(0.59, -0.81, 0.81, 0.59, 256.66, 223.71)">S</text><text class="cls-1" transform="translate(260.85 217.96) rotate(-53.98)"> </text><text class="cls-1" transform="translate(262.46 215.74) rotate(-53.98)">T</text><text class="cls-1" transform="matrix(0.59, -0.81, 0.81, 0.59, 266.56, 210.09)">O</text><text class="cls-1" transform="translate(271.41 203.42) rotate(-53.98)"> </text><text class="cls-1" transform="matrix(0.59, -0.81, 0.81, 0.59, 273.16, 201.01)">B</text><text class="cls-1" transform="matrix(0.59, -0.81, 0.81, 0.59, 277.57, 194.96)">E</text><text class="cls-1" transform="translate(281.58 189.44) rotate(-53.98)"> </text><text class="cls-1" transform="matrix(0.59, -0.81, 0.81, 0.59, 283.32, 187.04)">P</text><text class="cls-1" transform="translate(287.77 180.92) rotate(-53.98)">O</text><text class="cls-1" transform="matrix(0.62, 0.78, -0.78, 0.62, 292.18, 174.83)">P</text><text class="cls-1" transform="matrix(0.62, 0.78, -0.78, 0.62, 296.89, 180.75)">P</text><text class="cls-1" transform="translate(301.62 186.68) rotate(51.48)">Y</text><text class="cls-1" transform="translate(306.1 192.31) rotate(51.47)"> </text><text class="cls-1" transform="translate(307.96 194.65) rotate(51.48)">P</text><text class="cls-1" transform="matrix(0.62, 0.78, -0.78, 0.62, 312.67, 200.57)">O</text><text class="cls-1" transform="matrix(0.62, 0.78, -0.78, 0.62, 317.81, 207.02)">P</text><text class="cls-1" transform="matrix(0.62, 0.78, -0.78, 0.62, 322.53, 212.95)">P</text><text class="cls-1" transform="translate(327.26 218.89) rotate(51.48)">Y</text><text class="cls-1" transform="matrix(0.62, 0.78, -0.78, 0.62, 331.75, 224.53)"> </text><text class="cls-1" transform="translate(333.59 226.84) rotate(51.48)">E</text><text class="cls-1" transform="translate(337.85 232.19) rotate(51.48)">V</text><text class="cls-1" transform="translate(342.61 238.17) rotate(51.48)">E</text><text class="cls-1" transform="matrix(0.62, 0.78, -0.78, 0.62, 346.84, 243.49)">R</text><text class="cls-1" transform="matrix(0.62, 0.78, -0.78, 0.62, 351.27, 249.05)">Y<tspan x="7.24" y="0">B</tspan></text><text class="cls-1" transform="matrix(0.62, 0.78, -0.78, 0.62, 360.43, 260.55)">O</text><text class="cls-1" transform="matrix(0.62, 0.78, -0.78, 0.62, 365.57, 267)">D</text><text class="cls-1" transform="translate(370.31 272.96) rotate(51.48)">Y</text><text class="cls-1" transform="matrix(0.62, 0.78, -0.78, 0.62, 374.8, 278.6)"> </text><text class="cls-1" transform="matrix(0.62, 0.78, -0.78, 0.62, 376.65, 280.93)">W</text><text class="cls-1" transform="translate(383.14 289.08) rotate(51.47)">A</text><text class="cls-1" transform="matrix(0.62, 0.78, -0.78, 0.62, 388.02, 295.2)">N</text><text class="cls-1" transform="matrix(0.62, 0.78, -0.78, 0.62, 393.23, 301.75)">T</text><text class="cls-1" transform="translate(401.62 308.84) rotate(180)">S<tspan x="7.12" y="0"> </tspan><tspan x="9.87" y="0">T</tspan><tspan x="16.86" y="0">O</tspan><tspan x="25.13" y="0"> </tspan><tspan x="28.08" y="0">B</tspan><tspan x="35.56" y="0">E</tspan><tspan x="42.39" y="0"> </tspan><tspan x="45.35" y="0">P</tspan><tspan x="52.94" y="0">O</tspan><tspan x="61.18" y="0">P</tspan><tspan x="68.75" y="0">P</tspan><tspan x="76.32" y="0">Y</tspan><tspan x="83.53" y="0"> </tspan><tspan x="86.51" y="0">P</tspan><tspan x="94.09" y="0">O</tspan><tspan x="102.34" y="0">P</tspan><tspan x="109.9" y="0">P</tspan><tspan x="117.48" y="0">Y</tspan><tspan x="124.69" y="0"> </tspan><tspan x="127.66" y="0">E</tspan><tspan x="134.5" y="0">V</tspan><tspan x="142.12" y="0">E</tspan><tspan x="148.95" y="0">R</tspan><tspan x="156.05" y="0">Y</tspan></text><text class="cls-1" transform="matrix(0.61, -0.79, 0.79, 0.61, 241.97, 307.43)">B</text><text class="cls-1" transform="matrix(0.61, -0.79, 0.79, 0.61, 246.54, 301.55)">O</text><text class="cls-1" transform="matrix(0.61, -0.79, 0.79, 0.61, 251.61, 295.04)">D</text><text class="cls-1" transform="translate(256.29 289.02) rotate(-52.13)">Y</text><text class="cls-1" transform="translate(260.72 283.31) rotate(-52.13)"> </text><text class="cls-1" transform="translate(262.55 280.96) rotate(-52.13)">W</text><text class="cls-1" transform="translate(268.91 272.78) rotate(-52.13)">A</text><text class="cls-1" transform="translate(273.73 266.58) rotate(-52.13)">N</text><text class="cls-1" transform="matrix(0.61, -0.79, 0.79, 0.61, 278.87, 259.97)">T</text><text class="cls-1" transform="translate(283.22 254.38) rotate(-52.13)">S</text><text class="cls-1" transform="translate(287.59 248.76) rotate(-52.13)"> </text></g></g></svg>